# xmcd
#
# Track frame offsets:
#	150
#	15942
#	34162
#	49395
#	62897
#	82922
#	96790
#	109002
#	123692
#	138457
#	155952
#	174347
#	187780
#	207230
#
# Disc length: 2937 seconds
#
# Revision: 0
# Processed by: cddbd v1.5.2PL0 Copyright (c) Steve Scherf et al.
# Submitted via: EasyCDDAExtractor 10.0.2.1
#
DISCID=bb0b770e
DTITLE=Chris Lange and Robert Weideli - The Back Door Blues Men
DYEAR=2000
DGENRE=Blues
TTITLE0=Mama, 'Tain't Long 'Fore Day 
TTITLE1=Slidin' Delta 2
TTITLE2=Miss Otis Regrets
TTITLE3=Hey Hey, Baby Hey 
TTITLE4=Ramblin' Man Blues
TTITLE5=Louis Collins
TTITLE6=Illinois Central Blues
TTITLE7=Blues Jumped The Rabbit
TTITLE8=Hometown Blues
TTITLE9=In The Evening
TTITLE10=Easy Rider Blues
TTITLE11=The Glory Of Love 
TTITLE12=Sunny Side Of Love
TTITLE13=More Sweet Glories Of Love
EXTD=
EXTT0=
EXTT1=
EXTT2=
EXTT3=
EXTT4=
EXTT5=
EXTT6=
EXTT7=
EXTT8=
EXTT9=
EXTT10=
EXTT11=
EXTT12=
EXTT13=
PLAYORDER=
